<?xml version="1.0" encoding="UTF-8"?>
<svg xmlns="http://www.w3.org/2000/svg" width="1600" height="1100" viewBox="0 0 1600 1100">
  <defs>
    <marker id="crow-many" viewBox="0 0 12 12" refX="12" refY="6"
            markerWidth="10" markerHeight="10" orient="auto">
      <line x1="0" y1="0" x2="12" y2="6" stroke="#333" stroke-width="1.2"/>
      <line x1="0" y1="12" x2="12" y2="6" stroke="#333" stroke-width="1.2"/>
      <line x1="4" y1="0" x2="4" y2="12" stroke="#333" stroke-width="1.2"/>
    </marker>
    <marker id="one" viewBox="0 0 12 12" refX="0" refY="6"
            markerWidth="10" markerHeight="10" orient="auto">
      <line x1="4" y1="0" x2="4" y2="12" stroke="#333" stroke-width="1.2"/>
    </marker>
    <style>
      text { font-family: Arial, sans-serif; }
      .tbl-title { font-size: 13px; font-weight: bold; fill: #fff; }
      .col-name  { font-size: 11px; fill: #1a1a1a; }
      .col-type  { font-size: 10px; fill: #666; }
      .pk        { font-size: 10px; fill: #c0392b; font-weight: bold; }
      .fk        { font-size: 10px; fill: #2471a3; font-weight: bold; }
      .rel-label { font-size: 10px; fill: #444; font-style: italic; }
    </style>
  </defs>

  <rect width="1600" height="1100" fill="#ffffff"/>

  <!-- Title -->
  <text x="800" y="35" text-anchor="middle"
        style="font-size:18px;font-weight:bold;fill:#1a1a2e">
    VEI NEXUS — Entity Relationship Diagram
  </text>

  <!--
  ═══════════════════════════════════════════════
  TABLE POSITIONS:
  grade_levels      x=60   y=60
  register_students x=320  y=60
  siblings          x=320  y=480
  students          x=700  y=60
  subjects          x=960  y=60
  teachers          x=1240 y=60
  courses           x=960  y=340
  enrollments       x=700  y=560
  attendance_logs   x=960  y=620
  course_posts      x=1240 y=340
  ═══════════════════════════════════════════════
  -->

  <!-- ══════════════════════════════
       TABLE: grade_levels
       x=60 y=60
       ══════════════════════════════ -->
  <rect x="60" y="60" width="220" height="30" rx="4" fill="#2c3e50"/>
  <text x="170" y="80" text-anchor="middle" class="tbl-title">grade_levels</text>
  <rect x="60" y="90" width="220" height="25" fill="#f2f3f4" stroke="#bdc3c7" stroke-width="0.5"/>
  <text x="72" y="107" class="pk">PK</text>
  <text x="100" y="107" class="col-name">id</text>
  <text x="240" y="107" text-anchor="end" class="col-type">serial</text>
  <rect x="60" y="115" width="220" height="25" fill="#fff" stroke="#bdc3c7" stroke-width="0.5"/>
  <text x="72" y="132" class="col-name">name</text>
  <text x="240" y="132" text-anchor="end" class="col-type">varchar(50)</text>
  <rect x="60" y="60" width="220" height="80" rx="4" fill="none" stroke="#2c3e50" stroke-width="1.5"/>


  <!-- ══════════════════════════════
       TABLE: register_students
       x=320 y=60
       ══════════════════════════════ -->
  <rect x="320" y="60" width="280" height="30" rx="4" fill="#1a5276"/>
  <text x="460" y="80" text-anchor="middle" class="tbl-title">register_students</text>
  <!-- rows -->
  <rect x="320" y="90"  width="280" height="25" fill="#f2f3f4" stroke="#bdc3c7" stroke-width="0.5"/>
  <text x="332" y="107" class="pk">PK</text>
  <text x="360" y="107" class="col-name">register_id</text>
  <text x="578" y="107" text-anchor="end" class="col-type">serial</text>

  <rect x="320" y="115" width="280" height="25" fill="#fff" stroke="#bdc3c7" stroke-width="0.5"/>
  <text x="332" y="132" class="col-name">full_name</text>
  <text x="578" y="132" text-anchor="end" class="col-type">varchar(100)</text>

  <rect x="320" y="140" width="280" height="25" fill="#f2f3f4" stroke="#bdc3c7" stroke-width="0.5"/>
  <text x="332" y="157" class="col-name">father_name</text>
  <text x="578" y="157" text-anchor="end" class="col-type">varchar(100)</text>

  <rect x="320" y="165" width="280" height="25" fill="#fff" stroke="#bdc3c7" stroke-width="0.5"/>
  <text x="332" y="182" class="col-name">guardian_contact</text>
  <text x="578" y="182" text-anchor="end" class="col-type">varchar(50)</text>

  <rect x="320" y="190" width="280" height="25" fill="#f2f3f4" stroke="#bdc3c7" stroke-width="0.5"/>
  <text x="332" y="207" class="col-name">date_of_birth</text>
  <text x="578" y="207" text-anchor="end" class="col-type">date</text>

  <rect x="320" y="215" width="280" height="25" fill="#fff" stroke="#bdc3c7" stroke-width="0.5"/>
  <text x="332" y="232" class="col-name">date_of_registration</text>
  <text x="578" y="232" text-anchor="end" class="col-type">date</text>

  <rect x="320" y="240" width="280" height="25" fill="#f2f3f4" stroke="#bdc3c7" stroke-width="0.5"/>
  <text x="332" y="257" class="fk">FK</text>
  <text x="360" y="257" class="col-name">grade_level_id</text>
  <text x="578" y="257" text-anchor="end" class="col-type">integer</text>

  <rect x="320" y="265" width="280" height="25" fill="#fff" stroke="#bdc3c7" stroke-width="0.5"/>
  <text x="332" y="282" class="col-name">class_year</text>
  <text x="578" y="282" text-anchor="end" class="col-type">varchar(100)</text>

  <rect x="320" y="290" width="280" height="25" fill="#f2f3f4" stroke="#bdc3c7" stroke-width="0.5"/>
  <text x="332" y="307" class="col-name">has_sibling</text>
  <text x="578" y="307" text-anchor="end" class="col-type">boolean</text>

  <rect x="320" y="315" width="280" height="25" fill="#fff" stroke="#bdc3c7" stroke-width="0.5"/>
  <text x="332" y="332" class="col-name">status</text>
  <text x="578" y="332" text-anchor="end" class="col-type">varchar(30)</text>

  <rect x="320" y="60" width="280" height="280" rx="4" fill="none" stroke="#1a5276" stroke-width="1.5"/>


  <!-- ══════════════════════════════
       TABLE: siblings
       x=320 y=480
       ══════════════════════════════ -->
  <rect x="320" y="480" width="280" height="30" rx="4" fill="#6c3483"/>
  <text x="460" y="500" text-anchor="middle" class="tbl-title">siblings</text>

  <rect x="320" y="510" width="280" height="25" fill="#f2f3f4" stroke="#bdc3c7" stroke-width="0.5"/>
  <text x="332" y="527" class="pk">PK</text>
  <text x="332" y="527" class="pk" dx="20">FK</text>
  <text x="372" y="527" class="col-name">sibling_id</text>
  <text x="578" y="527" text-anchor="end" class="col-type">integer</text>

  <rect x="320" y="535" width="280" height="25" fill="#fff" stroke="#bdc3c7" stroke-width="0.5"/>
  <text x="332" y="552" class="pk">PK</text>
  <text x="332" y="552" class="fk" dx="20">FK</text>
  <text x="372" y="552" class="col-name">register_id</text>
  <text x="578" y="552" text-anchor="end" class="col-type">integer</text>

  <rect x="320" y="480" width="280" height="80" rx="4" fill="none" stroke="#6c3483" stroke-width="1.5"/>


  <!-- ══════════════════════════════
       TABLE: students
       x=700 y=60
       ══════════════════════════════ -->
  <rect x="700" y="60" width="240" height="30" rx="4" fill="#117a65"/>
  <text x="820" y="80" text-anchor="middle" class="tbl-title">students</text>

  <rect x="700" y="90"  width="240" height="25" fill="#f2f3f4" stroke="#bdc3c7" stroke-width="0.5"/>
  <text x="712" y="107" class="pk">PK</text>
  <text x="740" y="107" class="col-name">roll_no</text>
  <text x="918" y="107" text-anchor="end" class="col-type">varchar(20)</text>

  <rect x="700" y="115" width="240" height="25" fill="#fff" stroke="#bdc3c7" stroke-width="0.5"/>
  <text x="712" y="132" class="fk">FK</text>
  <text x="740" y="132" class="col-name">student_id</text>
  <text x="918" y="132" text-anchor="end" class="col-type">integer</text>

  <rect x="700" y="140" width="240" height="25" fill="#f2f3f4" stroke="#bdc3c7" stroke-width="0.5"/>
  <text x="712" y="157" class="col-name">password</text>
  <text x="918" y="157" text-anchor="end" class="col-type">varchar(500)</text>

  <rect x="700" y="165" width="240" height="25" fill="#fff" stroke="#bdc3c7" stroke-width="0.5"/>
  <text x="712" y="182" class="col-name">accepted_at</text>
  <text x="918" y="182" text-anchor="end" class="col-type">timestamp</text>

  <rect x="700" y="60" width="240" height="130" rx="4" fill="none" stroke="#117a65" stroke-width="1.5"/>


  <!-- ══════════════════════════════
       TABLE: subjects
       x=960 y=60
       ══════════════════════════════ -->
  <rect x="960" y="60" width="240" height="30" rx="4" fill="#784212"/>
  <text x="1080" y="80" text-anchor="middle" class="tbl-title">subjects</text>

  <rect x="960" y="90"  width="240" height="25" fill="#f2f3f4" stroke="#bdc3c7" stroke-width="0.5"/>
  <text x="972" y="107" class="pk">PK</text>
  <text x="1000" y="107" class="col-name">id</text>
  <text x="1178" y="107" text-anchor="end" class="col-type">integer</text>

  <rect x="960" y="115" width="240" height="25" fill="#fff" stroke="#bdc3c7" stroke-width="0.5"/>
  <text x="972" y="132" class="col-name">name</text>
  <text x="1178" y="132" text-anchor="end" class="col-type">varchar(100)</text>

  <rect x="960" y="140" width="240" height="25" fill="#f2f3f4" stroke="#bdc3c7" stroke-width="0.5"/>
  <text x="972" y="157" class="fk">FK</text>
  <text x="1000" y="157" class="col-name">grade_level_id</text>
  <text x="1178" y="157" text-anchor="end" class="col-type">integer</text>

  <rect x="960" y="60" width="240" height="105" rx="4" fill="none" stroke="#784212" stroke-width="1.5"/>


  <!-- ══════════════════════════════
       TABLE: teachers
       x=1260 y=60
       ══════════════════════════════ -->
  <rect x="1260" y="60" width="240" height="30" rx="4" fill="#1f618d"/>
  <text x="1380" y="80" text-anchor="middle" class="tbl-title">teachers</text>

  <rect x="1260" y="90"  width="240" height="25" fill="#f2f3f4" stroke="#bdc3c7" stroke-width="0.5"/>
  <text x="1272" y="107" class="pk">PK</text>
  <text x="1300" y="107" class="col-name">id</text>
  <text x="1478" y="107" text-anchor="end" class="col-type">varchar(20)</text>

  <rect x="1260" y="115" width="240" height="25" fill="#fff" stroke="#bdc3c7" stroke-width="0.5"/>
  <text x="1272" y="132" class="col-name">full_name</text>
  <text x="1478" y="132" text-anchor="end" class="col-type">varchar(100)</text>

  <rect x="1260" y="140" width="240" height="25" fill="#f2f3f4" stroke="#bdc3c7" stroke-width="0.5"/>
  <text x="1272" y="157" class="col-name">password</text>
  <text x="1478" y="157" text-anchor="end" class="col-type">varchar(500)</text>

  <rect x="1260" y="60" width="240" height="105" rx="4" fill="none" stroke="#1f618d" stroke-width="1.5"/>


  <!-- ══════════════════════════════
       TABLE: courses
       x=960 y=340
       ══════════════════════════════ -->
  <rect x="960" y="340" width="240" height="30" rx="4" fill="#515a5a"/>
  <text x="1080" y="360" text-anchor="middle" class="tbl-title">courses</text>

  <rect x="960" y="370"  width="240" height="25" fill="#f2f3f4" stroke="#bdc3c7" stroke-width="0.5"/>
  <text x="972" y="387" class="pk">PK</text>
  <text x="1000" y="387" class="col-name">id</text>
  <text x="1178" y="387" text-anchor="end" class="col-type">serial</text>

  <rect x="960" y="395" width="240" height="25" fill="#fff" stroke="#bdc3c7" stroke-width="0.5"/>
  <text x="972" y="412" class="fk">FK</text>
  <text x="1000" y="412" class="col-name">subject_id</text>
  <text x="1178" y="412" text-anchor="end" class="col-type">integer</text>

  <rect x="960" y="420" width="240" height="25" fill="#f2f3f4" stroke="#bdc3c7" stroke-width="0.5"/>
  <text x="972" y="437" class="fk">FK</text>
  <text x="1000" y="437" class="col-name">teacher_id</text>
  <text x="1178" y="437" text-anchor="end" class="col-type">varchar(20)</text>

  <rect x="960" y="445" width="240" height="25" fill="#fff" stroke="#bdc3c7" stroke-width="0.5"/>
  <text x="972" y="462" class="col-name">is_published</text>
  <text x="1178" y="462" text-anchor="end" class="col-type">boolean</text>

  <rect x="960" y="470" width="240" height="25" fill="#f2f3f4" stroke="#bdc3c7" stroke-width="0.5"/>
  <text x="972" y="487" class="col-name">created_at</text>
  <text x="1178" y="487" text-anchor="end" class="col-type">timestamp</text>

  <rect x="960" y="495" width="240" height="25" fill="#fff" stroke="#bdc3c7" stroke-width="0.5"/>
  <text x="972" y="512" class="col-name">student_count</text>
  <text x="1178" y="512" text-anchor="end" class="col-type">integer</text>

  <rect x="960" y="340" width="240" height="180" rx="4" fill="none" stroke="#515a5a" stroke-width="1.5"/>


  <!-- ══════════════════════════════
       TABLE: enrollments
       x=680 y=520
       ══════════════════════════════ -->
  <rect x="680" y="520" width="240" height="30" rx="4" fill="#7d6608"/>
  <text x="800" y="540" text-anchor="middle" class="tbl-title">enrollments</text>

  <rect x="680" y="550"  width="240" height="25" fill="#f2f3f4" stroke="#bdc3c7" stroke-width="0.5"/>
  <text x="692" y="567" class="pk">PK</text>
  <text x="720" y="567" class="col-name">id</text>
  <text x="898" y="567" text-anchor="end" class="col-type">serial</text>

  <rect x="680" y="575" width="240" height="25" fill="#fff" stroke="#bdc3c7" stroke-width="0.5"/>
  <text x="692" y="592" class="fk">FK</text>
  <text x="720" y="592" class="col-name">student_roll_no</text>
  <text x="898" y="592" text-anchor="end" class="col-type">varchar(20)</text>

  <rect x="680" y="600" width="240" height="25" fill="#f2f3f4" stroke="#bdc3c7" stroke-width="0.5"/>
  <text x="692" y="617" class="fk">FK</text>
  <text x="720" y="617" class="col-name">course_id</text>
  <text x="898" y="617" text-anchor="end" class="col-type">integer</text>

  <rect x="680" y="625" width="240" height="25" fill="#fff" stroke="#bdc3c7" stroke-width="0.5"/>
  <text x="692" y="642" class="col-name">enrolled_at</text>
  <text x="898" y="642" text-anchor="end" class="col-type">timestamp</text>

  <rect x="680" y="650" width="240" height="25" fill="#f2f3f4" stroke="#bdc3c7" stroke-width="0.5"/>
  <text x="692" y="667" class="col-name">attendance</text>
  <text x="898" y="667" text-anchor="end" class="col-type">numeric(5,2)</text>

  <rect x="680" y="520" width="240" height="155" rx="4" fill="none" stroke="#7d6608" stroke-width="1.5"/>


  <!-- ══════════════════════════════
       TABLE: attendance_logs
       x=960 y=620
       ══════════════════════════════ -->
  <rect x="960" y="620" width="240" height="30" rx="4" fill="#922b21"/>
  <text x="1080" y="640" text-anchor="middle" class="tbl-title">attendance_logs</text>

  <rect x="960" y="650"  width="240" height="25" fill="#f2f3f4" stroke="#bdc3c7" stroke-width="0.5"/>
  <text x="972" y="667" class="pk">PK</text>
  <text x="1000" y="667" class="col-name">id</text>
  <text x="1178" y="667" text-anchor="end" class="col-type">serial</text>

  <rect x="960" y="675" width="240" height="25" fill="#fff" stroke="#bdc3c7" stroke-width="0.5"/>
  <text x="972" y="692" class="fk">FK</text>
  <text x="1000" y="692" class="col-name">student_roll_no</text>
  <text x="1178" y="692" text-anchor="end" class="col-type">varchar(20)</text>

  <rect x="960" y="700" width="240" height="25" fill="#f2f3f4" stroke="#bdc3c7" stroke-width="0.5"/>
  <text x="972" y="717" class="fk">FK</text>
  <text x="1000" y="717" class="col-name">course_id</text>
  <text x="1178" y="717" text-anchor="end" class="col-type">integer</text>

  <rect x="960" y="725" width="240" height="25" fill="#fff" stroke="#bdc3c7" stroke-width="0.5"/>
  <text x="972" y="742" class="col-name">attendance_date</text>
  <text x="1178" y="742" text-anchor="end" class="col-type">date</text>

  <rect x="960" y="750" width="240" height="25" fill="#f2f3f4" stroke="#bdc3c7" stroke-width="0.5"/>
  <text x="972" y="767" class="col-name">status</text>
  <text x="1178" y="767" text-anchor="end" class="col-type">char(1) P/A</text>

  <rect x="960" y="620" width="240" height="155" rx="4" fill="none" stroke="#922b21" stroke-width="1.5"/>


  <!-- ══════════════════════════════
       TABLE: course_posts
       x=1260 y=340
       ══════════════════════════════ -->
  <rect x="1260" y="340" width="260" height="30" rx="4" fill="#4a235a"/>
  <text x="1390" y="360" text-anchor="middle" class="tbl-title">course_posts</text>

  <rect x="1260" y="370"  width="260" height="25" fill="#f2f3f4" stroke="#bdc3c7" stroke-width="0.5"/>
  <text x="1272" y="387" class="pk">PK</text>
  <text x="1300" y="387" class="col-name">id</text>
  <text x="1498" y="387" text-anchor="end" class="col-type">serial</text>

  <rect x="1260" y="395" width="260" height="25" fill="#fff" stroke="#bdc3c7" stroke-width="0.5"/>
  <text x="1272" y="412" class="fk">FK</text>
  <text x="1300" y="412" class="col-name">course_id</text>
  <text x="1498" y="412" text-anchor="end" class="col-type">integer</text>

  <rect x="1260" y="420" width="260" height="25" fill="#f2f3f4" stroke="#bdc3c7" stroke-width="0.5"/>
  <text x="1272" y="437" class="col-name">post_type</text>
  <text x="1498" y="437" text-anchor="end" class="col-type">varchar(20)</text>

  <rect x="1260" y="445" width="260" height="25" fill="#fff" stroke="#bdc3c7" stroke-width="0.5"/>
  <text x="1272" y="462" class="col-name">title</text>
  <text x="1498" y="462" text-anchor="end" class="col-type">varchar(150)</text>

  <rect x="1260" y="470" width="260" height="25" fill="#f2f3f4" stroke="#bdc3c7" stroke-width="0.5"/>
  <text x="1272" y="487" class="col-name">content</text>
  <text x="1498" y="487" text-anchor="end" class="col-type">text</text>

  <rect x="1260" y="495" width="260" height="25" fill="#fff" stroke="#bdc3c7" stroke-width="0.5"/>
  <text x="1272" y="512" class="col-name">link</text>
  <text x="1498" y="512" text-anchor="end" class="col-type">text</text>

  <rect x="1260" y="520" width="260" height="25" fill="#f2f3f4" stroke="#bdc3c7" stroke-width="0.5"/>
  <text x="1272" y="537" class="col-name">created_at</text>
  <text x="1498" y="537" text-anchor="end" class="col-type">timestamp</text>

  <rect x="1260" y="340" width="260" height="205" rx="4" fill="none" stroke="#4a235a" stroke-width="1.5"/>


  <!-- ══════════════════════════════════════════════════
       RELATIONSHIP LINES — plain straight lines
       ══════════════════════════════════════════════════

       1. grade_levels (1) ──── (M) register_students
          grade_levels.id → register_students.grade_level_id
       ══════════════════════════════════════════════════ -->
  <line x1="280" y1="102" x2="320" y2="248" stroke="#333" stroke-width="1.2"/>
  <text x="288" y="185" class="rel-label">1</text>
  <text x="310" y="245" class="rel-label">M</text>

  <!-- 2. grade_levels (1) ──── (M) subjects
       grade_levels.id → subjects.grade_level_id -->
  <line x1="280" y1="102" x2="960" y2="148" stroke="#333" stroke-width="1.2"/>
  <text x="290" y="100" class="rel-label">1</text>
  <text x="942" y="150" class="rel-label">M</text>

  <!-- 3. register_students (1) ──── (1) students
       register_students.register_id → students.student_id -->
  <line x1="600" y1="150" x2="700" y2="130" stroke="#333" stroke-width="1.2"/>
  <text x="605" y="145" class="rel-label">1</text>
  <text x="702" y="128" class="rel-label">1</text>

  <!-- 4. register_students (1) ──── (M) siblings (register_id)
       register_students.register_id → siblings.register_id -->
  <line x1="460" y1="340" x2="460" y2="480" stroke="#333" stroke-width="1.2"/>
  <text x="466" y="370" class="rel-label">1</text>
  <text x="466" y="476" class="rel-label">M</text>

  <!-- 5. subjects (1) ──── (M) courses
       subjects.id → courses.subject_id -->
  <line x1="1080" y1="165" x2="1080" y2="340" stroke="#333" stroke-width="1.2"/>
  <text x="1086" y="185" class="rel-label">1</text>
  <text x="1086" y="338" class="rel-label">M</text>

  <!-- 6. teachers (1) ──── (M) courses
       teachers.id → courses.teacher_id -->
  <line x1="1260" y1="125" x2="1200" y2="430" stroke="#333" stroke-width="1.2"/>
  <text x="1255" y="140" class="rel-label">1</text>
  <text x="1202" y="428" class="rel-label">M</text>

  <!-- 7. students (1) ──── (M) enrollments
       students.roll_no → enrollments.student_roll_no -->
  <line x1="820" y1="190" x2="800" y2="520" stroke="#333" stroke-width="1.2"/>
  <text x="826" y="220" class="rel-label">1</text>
  <text x="806" y="518" class="rel-label">M</text>

  <!-- 8. courses (1) ──── (M) enrollments
       courses.id → enrollments.course_id -->
  <line x1="960" y1="430" x2="920" y2="612" stroke="#333" stroke-width="1.2"/>
  <text x="950" y="450" class="rel-label">1</text>
  <text x="922" y="610" class="rel-label">M</text>

  <!-- 9. students (1) ──── (M) attendance_logs
       students.roll_no → attendance_logs.student_roll_no -->
  <line x1="940" y1="130" x2="1040" y2="682" stroke="#333" stroke-width="1.2"/>
  <text x="944" y="160" class="rel-label">1</text>
  <text x="1042" y="680" class="rel-label">M</text>

  <!-- 10. courses (1) ──── (M) attendance_logs
       courses.id → attendance_logs.course_id -->
  <line x1="1080" y1="520" x2="1080" y2="620" stroke="#333" stroke-width="1.2"/>
  <text x="1086" y="545" class="rel-label">1</text>
  <text x="1086" y="618" class="rel-label">M</text>

  <!-- 11. courses (1) ──── (M) course_posts
       courses.id → course_posts.course_id -->
  <line x1="1200" y1="415" x2="1260" y2="410" stroke="#333" stroke-width="1.2"/>
  <text x="1205" y="410" class="rel-label">1</text>
  <text x="1248" y="408" class="rel-label">M</text>


  <!-- ══════════════════════════════
       LEGEND
       ══════════════════════════════ -->
  <rect x="60" y="860" width="420" height="130" rx="6" fill="#fff" stroke="#bdc3c7" stroke-width="1"/>
  <text x="80" y="885" style="font-size:13px;font-weight:bold;fill:#1a1a2e">Legend</text>

  <rect x="80" y="897" width="14" height="14" fill="#f2f3f4" stroke="#333" stroke-width="1"/>
  <text x="100" y="909" class="pk">PK — Primary Key</text>

  <rect x="80" y="920" width="14" height="14" fill="#fff" stroke="#333" stroke-width="1"/>
  <text x="100" y="932" class="fk">FK — Foreign Key</text>

  <line x1="80" y1="950" x2="140" y2="950" stroke="#333" stroke-width="1.2"/>
  <text x="80" y="945" style="font-size:11px;fill:#333">1</text>
  <text x="130" y="945" style="font-size:11px;fill:#333">M</text>
  <text x="148" y="954" style="font-size:11px;fill:#444">One-to-Many relationship</text>

  <line x1="80" y1="975" x2="140" y2="975" stroke="#333" stroke-width="1.2"/>
  <text x="80" y="970" style="font-size:11px;fill:#333">1</text>
  <text x="130" y="970" style="font-size:11px;fill:#333">1</text>
  <text x="148" y="979" style="font-size:11px;fill:#444">One-to-One relationship</text>

</svg>
